<svg width="263" height="75" viewBox="0 0 263 75" fill="none" xmlns="http://www.w3.org/2000/svg">
<path d="M1.01812 23.2665C1.01812 22.0337 1.2536 20.8771 1.72457 19.7966C2.19553 18.7162 2.83272 17.7742 3.63614 16.9708C4.4534 16.1535 5.40226 15.5094 6.48271 15.0385C7.56317 14.5675 8.71981 14.332 9.95263 14.332H23.6245V20.2953H9.95263C9.53707 20.2953 9.14922 20.3715 8.78906 20.5238C8.42891 20.6762 8.11032 20.8909 7.83328 21.1679C7.57009 21.4311 7.36231 21.7428 7.20994 22.103C7.05757 22.4631 6.98138 22.851 6.98138 23.2665C6.98138 23.6821 7.05757 24.0769 7.20994 24.4509C7.36231 24.811 7.57009 25.1296 7.83328 25.4066C8.11032 25.6698 8.42891 25.8776 8.78906 26.03C9.14922 26.1824 9.53707 26.2585 9.95263 26.2585H15.9159C17.1487 26.2585 18.3054 26.494 19.3858 26.965C20.4801 27.4221 21.429 28.0593 22.2324 28.8766C23.0497 29.68 23.6868 30.6288 24.144 31.7231C24.6149 32.8036 24.8504 33.9602 24.8504 35.1931C24.8504 36.4259 24.6149 37.5825 24.144 38.663C23.6868 39.7434 23.0497 40.6923 22.2324 41.5095C21.429 42.313 20.4801 42.9501 19.3858 43.4211C18.3054 43.8921 17.1487 44.1276 15.9159 44.1276H2.68035V38.1643H15.9159C16.3315 38.1643 16.7193 38.0881 17.0795 37.9357C17.4396 37.7834 17.7513 37.5756 18.0145 37.3124C18.2915 37.0354 18.5062 36.7168 18.6586 36.3566C18.811 35.9965 18.8871 35.6086 18.8871 35.1931C18.8871 34.7775 18.811 34.3896 18.6586 34.0295C18.5062 33.6693 18.2915 33.3577 18.0145 33.0945C17.7513 32.8174 17.4396 32.6027 17.0795 32.4504C16.7193 32.298 16.3315 32.2218 15.9159 32.2218H9.95263C8.71981 32.2218 7.56317 31.9863 6.48271 31.5154C5.40226 31.0444 4.4534 30.4072 3.63614 29.6038C2.83272 28.7865 2.19553 27.8377 1.72457 26.7572C1.2536 25.6629 1.01812 24.4993 1.01812 23.2665ZM33.681 52.605H27.9671V21.8744H29.3384L31.6032 24.5548C32.1158 24.0699 32.6768 23.6128 33.2862 23.1834C33.8957 22.754 34.526 22.3869 35.177 22.0822C35.8419 21.7636 36.5276 21.5142 37.2341 21.3342C37.9405 21.1541 38.6539 21.0641 39.3742 21.0641C40.9395 21.0641 42.4078 21.348 43.7791 21.916C45.1643 22.47 46.3694 23.2596 47.3945 24.2846C48.4334 25.3097 49.2506 26.5494 49.8463 28.0039C50.4419 29.4445 50.7397 31.0444 50.7397 32.8036C50.7397 34.632 50.4419 36.2804 49.8463 37.7487C49.2506 39.2032 48.4334 40.4429 47.3945 41.468C46.3694 42.4792 45.1643 43.2549 43.7791 43.7951C42.4078 44.3353 40.9395 44.6055 39.3742 44.6055C38.8755 44.6055 38.3768 44.55 37.8782 44.4392C37.3934 44.3284 36.9085 44.183 36.4237 44.0029C35.9527 43.809 35.4818 43.5943 35.0108 43.3588C34.5537 43.1233 34.1104 42.8809 33.681 42.6316V52.605ZM45.0466 32.8036C45.0466 31.8617 44.8942 31.0167 44.5894 30.2687C44.2986 29.5207 43.8968 28.8904 43.3843 28.3779C42.8718 27.8515 42.2692 27.4498 41.5766 27.1728C40.884 26.8957 40.1499 26.7572 39.3742 26.7572C38.5985 26.7572 37.8643 26.8957 37.1717 27.1728C36.493 27.4498 35.8973 27.8515 35.3848 28.3779C34.8723 28.8904 34.4637 29.5207 34.1589 30.2687C33.868 31.0167 33.7226 31.8617 33.7226 32.8036C33.7226 33.704 33.868 34.5282 34.1589 35.2762C34.4637 36.0242 34.8723 36.6614 35.3848 37.1877C35.8973 37.7141 36.493 38.1227 37.1717 38.4136C37.8643 38.7045 38.5985 38.85 39.3742 38.85C40.1499 38.85 40.884 38.7045 41.5766 38.4136C42.2692 38.1227 42.8718 37.7141 43.3843 37.1877C43.8968 36.6614 44.2986 36.0242 44.5894 35.2762C44.8942 34.5282 45.0466 33.704 45.0466 32.8036ZM75.4447 44.1276H74.0733L71.8709 41.0732C71.3306 41.558 70.7558 42.0151 70.1463 42.4446C69.5507 42.8601 68.9204 43.2272 68.2555 43.5458C67.5906 43.8505 66.9049 44.0929 66.1985 44.273C65.5059 44.4531 64.7994 44.5431 64.0791 44.5431C62.5139 44.5431 61.0386 44.2799 59.6534 43.7536C58.2821 43.2272 57.077 42.4653 56.0381 41.468C55.013 40.4568 54.2027 39.224 53.6071 37.7695C53.0114 36.3151 52.7136 34.6598 52.7136 32.8036C52.7136 31.0721 53.0114 29.486 53.6071 28.0454C54.2027 26.591 55.013 25.3443 56.0381 24.3054C57.077 23.2665 58.2821 22.4631 59.6534 21.8952C61.0386 21.3134 62.5139 21.0225 64.0791 21.0225C64.7994 21.0225 65.5128 21.1125 66.2193 21.2926C66.9257 21.4727 67.6114 21.722 68.2763 22.0406C68.9412 22.3592 69.5714 22.7332 70.1671 23.1626C70.7766 23.592 71.3445 24.0561 71.8709 24.5548L74.0733 21.916H75.4447V44.1276ZM69.7307 32.8036C69.7307 32.0279 69.5784 31.2799 69.2736 30.5596C68.9827 29.8254 68.581 29.1813 68.0685 28.6272C67.556 28.0593 66.9534 27.6091 66.2608 27.2767C65.5821 26.9304 64.8548 26.7572 64.0791 26.7572C63.3034 26.7572 62.5693 26.8888 61.8767 27.152C61.1979 27.4152 60.6023 27.803 60.0898 28.3156C59.5911 28.8281 59.1963 29.4653 58.9054 30.2271C58.6145 30.9751 58.4691 31.834 58.4691 32.8036C58.4691 33.7732 58.6145 34.639 58.9054 35.4008C59.1963 36.1488 59.5911 36.7791 60.0898 37.2916C60.6023 37.8041 61.1979 38.192 61.8767 38.4552C62.5693 38.7184 63.3034 38.85 64.0791 38.85C64.8548 38.85 65.5821 38.6837 66.2608 38.3513C66.9534 38.005 67.556 37.5548 68.0685 37.0007C68.581 36.4328 68.9827 35.7887 69.2736 35.0684C69.5784 34.3342 69.7307 33.5793 69.7307 32.8036ZM85.4596 44.1276H79.7873V21.8744H81.1586L83.0286 24.5132C83.9428 23.6821 84.9817 23.0449 86.1453 22.6016C87.3089 22.1445 88.514 21.916 89.7607 21.916H94.7681V27.5676H89.7607C89.165 27.5676 88.604 27.6784 88.0776 27.9C87.5513 28.1216 87.0942 28.4264 86.7063 28.8142C86.3185 29.2021 86.0137 29.6592 85.7921 30.1856C85.5704 30.7119 85.4596 31.2729 85.4596 31.8686V44.1276ZM103.121 44.1276H97.4069V13.023H103.121V32.6374L111.577 21.916H118.102L110.726 31.1829L118.102 44.1276H111.577L107.069 36.0449L103.121 41.281V44.1276ZM126.912 20.2953V32.2218H132.875C133.692 32.2218 134.461 32.0694 135.181 31.7647C135.902 31.4461 136.532 31.0167 137.072 30.4765C137.612 29.9362 138.035 29.306 138.339 28.5857C138.658 27.8515 138.817 27.0758 138.817 26.2585C138.817 25.4413 138.658 24.6725 138.339 23.9522C138.035 23.218 137.612 22.5808 137.072 22.0406C136.532 21.5004 135.902 21.0779 135.181 20.7732C134.461 20.4546 133.692 20.2953 132.875 20.2953H126.912ZM126.912 44.1276H120.948V14.332H132.875C133.969 14.332 135.022 14.4775 136.033 14.7683C137.044 15.0454 137.986 15.4471 138.859 15.9735C139.745 16.486 140.549 17.1093 141.269 17.8435C142.003 18.5638 142.627 19.3672 143.139 20.2537C143.666 21.1402 144.067 22.0891 144.344 23.1003C144.635 24.1115 144.781 25.1642 144.781 26.2585C144.781 27.2836 144.649 28.2809 144.386 29.2506C144.137 30.2202 143.769 31.1414 143.285 32.014C142.814 32.8867 142.232 33.6901 141.539 34.4243C140.847 35.1584 140.071 35.7956 139.212 36.3358L142.516 44.1276H136.179L133.581 38.1227L126.912 38.1643V44.1276ZM156.707 38.6837C156.929 38.753 157.15 38.8015 157.372 38.8292C157.594 38.843 157.815 38.85 158.037 38.85C158.591 38.85 159.124 38.7738 159.637 38.6214C160.149 38.469 160.627 38.2543 161.071 37.9773C161.528 37.6864 161.929 37.3401 162.276 36.9384C162.636 36.5228 162.927 36.0657 163.148 35.5671L167.304 39.7434C166.778 40.4914 166.168 41.1632 165.475 41.7589C164.797 42.3545 164.056 42.8601 163.252 43.2757C162.463 43.6912 161.625 44.0029 160.738 44.2107C159.865 44.4323 158.965 44.5431 158.037 44.5431C156.472 44.5431 154.996 44.2522 153.611 43.6704C152.24 43.0887 151.035 42.2783 149.996 41.2394C148.971 40.2005 148.161 38.9677 147.565 37.541C146.969 36.1004 146.671 34.5212 146.671 32.8036C146.671 31.0444 146.969 29.4376 147.565 27.9831C148.161 26.5287 148.971 25.2889 149.996 24.2639C151.035 23.2388 152.24 22.4423 153.611 21.8744C154.996 21.3065 156.472 21.0225 158.037 21.0225C158.965 21.0225 159.872 21.1333 160.759 21.355C161.645 21.5766 162.483 21.8952 163.273 22.3107C164.076 22.7263 164.824 23.2388 165.517 23.8483C166.21 24.4439 166.819 25.1158 167.345 25.8638L156.707 38.6837ZM159.616 26.9858C159.353 26.8888 159.09 26.8265 158.827 26.7988C158.577 26.7711 158.314 26.7572 158.037 26.7572C157.261 26.7572 156.527 26.9027 155.834 27.1935C155.156 27.4706 154.56 27.8723 154.048 28.3987C153.549 28.925 153.154 29.5622 152.863 30.3102C152.572 31.0444 152.427 31.8755 152.427 32.8036C152.427 33.0114 152.434 33.2469 152.448 33.51C152.475 33.7732 152.51 34.0433 152.552 34.3204C152.607 34.5836 152.669 34.8398 152.739 35.0892C152.808 35.3385 152.898 35.5601 153.009 35.7541L159.616 26.9858ZM175.885 44.1276H170.213V21.8744H171.584L173.454 24.0353C174.368 23.2042 175.4 22.567 176.55 22.1237C177.714 21.6666 178.926 21.4381 180.186 21.4381C181.544 21.4381 182.825 21.7012 184.03 22.2276C185.235 22.7401 186.288 23.4535 187.188 24.3678C188.089 25.2681 188.795 26.3278 189.308 27.5468C189.834 28.7519 190.097 30.0401 190.097 31.4115V44.1276H184.425V31.4115C184.425 30.8297 184.314 30.2825 184.092 29.77C183.871 29.2436 183.566 28.7865 183.178 28.3987C182.79 28.0108 182.34 27.7061 181.828 27.4844C181.315 27.2628 180.768 27.152 180.186 27.152C179.591 27.152 179.03 27.2628 178.503 27.4844C177.977 27.7061 177.52 28.0108 177.132 28.3987C176.744 28.7865 176.439 29.2436 176.218 29.77C175.996 30.2825 175.885 30.8297 175.885 31.4115V44.1276ZM227.622 44.1276H226.251L224.048 41.0732C223.508 41.558 222.933 42.0151 222.324 42.4446C221.728 42.8601 221.098 43.2272 220.433 43.5458C219.768 43.8505 219.083 44.0929 218.376 44.273C217.683 44.4531 216.977 44.5431 216.257 44.5431C214.691 44.5431 213.216 44.2799 211.831 43.7536C210.46 43.2272 209.255 42.4653 208.216 41.468C207.191 40.4568 206.38 39.224 205.785 37.7695C205.189 36.3151 204.891 34.6598 204.891 32.8036C204.891 31.0721 205.189 29.486 205.785 28.0454C206.38 26.591 207.191 25.3443 208.216 24.3054C209.255 23.2665 210.46 22.4631 211.831 21.8952C213.216 21.3134 214.691 21.0225 216.257 21.0225C216.977 21.0225 217.69 21.1125 218.397 21.2926C219.103 21.4727 219.789 21.722 220.454 22.0406C221.119 22.3592 221.749 22.7332 222.345 23.1626C222.954 23.592 223.522 24.0561 224.048 24.5548L226.251 21.916H227.622V44.1276ZM221.908 32.8036C221.908 32.0279 221.756 31.2799 221.451 30.5596C221.16 29.8254 220.759 29.1813 220.246 28.6272C219.734 28.0593 219.131 27.6091 218.438 27.2767C217.76 26.9304 217.032 26.7572 216.257 26.7572C215.481 26.7572 214.747 26.8888 214.054 27.152C213.376 27.4152 212.78 27.803 212.267 28.3156C211.769 28.8281 211.374 29.4653 211.083 30.2271C210.792 30.9751 210.647 31.834 210.647 32.8036C210.647 33.7732 210.792 34.639 211.083 35.4008C211.374 36.1488 211.769 36.7791 212.267 37.2916C212.78 37.8041 213.376 38.192 214.054 38.4552C214.747 38.7184 215.481 38.85 216.257 38.85C217.032 38.85 217.76 38.6837 218.438 38.3513C219.131 38.005 219.734 37.5548 220.246 37.0007C220.759 36.4328 221.16 35.7887 221.451 35.0684C221.756 34.3342 221.908 33.5793 221.908 32.8036ZM237.679 44.1276H231.965V13.023H237.679V44.1276ZM254.239 44.1276H241.273V38.476H254.239C254.627 38.476 254.959 38.3374 255.236 38.0604C255.513 37.7834 255.652 37.4509 255.652 37.0631C255.652 36.6614 255.513 36.3982 255.236 36.2735C254.959 36.1488 254.627 36.0865 254.239 36.0865H248.338C247.354 36.0865 246.433 35.8995 245.574 35.5255C244.716 35.1515 243.968 34.6459 243.33 34.0087C242.693 33.3577 242.188 32.6027 241.814 31.7439C241.453 30.8851 241.273 29.9639 241.273 28.9805C241.273 27.997 241.453 27.0758 241.814 26.217C242.188 25.3582 242.693 24.6102 243.33 23.973C243.968 23.3358 244.716 22.8371 245.574 22.477C246.433 22.103 247.354 21.916 248.338 21.916H259.828V27.5676H248.338C247.95 27.5676 247.618 27.7061 247.34 27.9831C247.063 28.2601 246.925 28.5926 246.925 28.9805C246.925 29.3822 247.063 29.7285 247.34 30.0193C247.618 30.2964 247.95 30.4349 248.338 30.4349H254.239C255.208 30.4349 256.123 30.6011 256.981 30.9336C257.84 31.2522 258.588 31.7024 259.225 32.2841C259.863 32.8659 260.368 33.5654 260.742 34.3827C261.116 35.2 261.303 36.0934 261.303 37.0631C261.303 38.0466 261.116 38.9677 260.742 39.8265C260.368 40.6715 259.863 41.4195 259.225 42.0705C258.588 42.7077 257.84 43.2133 256.981 43.5873C256.123 43.9475 255.208 44.1276 254.239 44.1276Z" fill="black"/>
<path d="M253.793 52.7815C256.688 52.7815 256.688 48.1648 253.793 48.1648C246.846 48.1648 240.768 51.9159 237.584 57.9758H204.297L197.929 49.8965L206.383 5.31915H213.83C217.021 5.31914 217.021 0 213.83 0H198.936C195.745 4.49413e-06 195.745 5.31915 198.936 5.31915H201.596L191.536 57.1102L190.403 57.1083C185.193 56.8198 180.851 60.8594 180.851 66.0532C180.851 70.9584 184.903 74.9981 189.824 74.9981C194.744 74.9981 198.797 70.9584 198.797 66.0532C198.797 63.1674 197.858 60.3162 195.542 58.5843L196.433 55.4787C199.617 59.5184 202.56 63.4557 205.743 67.4954C206.322 68.0723 206.9 68.6493 207.769 68.6493H237.873C239.32 68.6493 240.479 67.4954 240.479 66.0521C240.479 58.8381 246.267 52.779 253.793 52.779L253.793 52.7815ZM235.847 62.5925V63.7465H208.929L208.06 62.5925H235.847ZM253.793 57.1102C248.584 57.1102 244.531 61.1499 244.531 66.0551C244.531 70.9603 248.584 75 253.793 75C258.714 75 262.766 70.9603 262.766 66.0551C262.766 61.1499 258.714 57.1102 253.793 57.1102ZM253.793 62.0155C256.109 62.0155 257.846 63.7464 257.846 66.0551C257.846 68.3639 256.109 70.3833 253.793 70.3833C251.188 70.3833 249.452 68.3631 249.452 66.0551C249.452 63.7464 251.188 62.0155 253.793 62.0155ZM189.825 62.0155C192.141 62.0155 194.166 63.7464 194.166 66.0551C194.166 68.3639 192.14 70.3833 189.825 70.3833C187.509 70.3833 185.772 68.3631 185.772 66.0551C185.772 63.7464 187.509 62.0155 189.825 62.0155Z" fill="black"/>
<path d="M193.617 43.0852L200 51.0639V52.1278H192.021L193.617 43.0852Z" fill="#B5C1E9"/>
<path d="M259.043 48.4042L253.008 48.087L253.191 52.6596L260.902 52.9336L261.114 51.7633L259.043 48.4042Z" fill="black"/>
<path d="M192.021 3.7234L197.34 0H199.468V5.31915H197.34H192.021V3.7234Z" fill="black"/>
<path d="M221.277 3.7234L215.957 0H213.83V5.31915H215.957H221.277V3.7234Z" fill="black"/>
<path d="M1.44552 62.4325C1.44552 61.9702 1.53382 61.5364 1.71043 61.1313C1.88705 60.7261 2.12599 60.3729 2.42727 60.0716C2.73375 59.7651 3.08957 59.5236 3.49474 59.347C3.89991 59.1703 4.33365 59.082 4.79596 59.082H9.92291V61.3183H4.79596C4.64012 61.3183 4.49468 61.3468 4.35962 61.404C4.22456 61.4611 4.10509 61.5416 4.0012 61.6455C3.90251 61.7442 3.82459 61.8611 3.76745 61.9961C3.71031 62.1312 3.68174 62.2766 3.68174 62.4325C3.68174 62.5883 3.71031 62.7364 3.76745 62.8766C3.82459 63.0117 3.90251 63.1311 4.0012 63.235C4.10509 63.3337 4.22456 63.4116 4.35962 63.4688C4.49468 63.5259 4.64012 63.5545 4.79596 63.5545H7.03218C7.49449 63.5545 7.92823 63.6428 8.3334 63.8194C8.74376 63.9908 9.09959 64.2298 9.40087 64.5362C9.70734 64.8375 9.94629 65.1933 10.1177 65.6037C10.2943 66.0089 10.3826 66.4426 10.3826 66.9049C10.3826 67.3672 10.2943 67.801 10.1177 68.2061C9.94629 68.6113 9.70734 68.9671 9.40087 69.2736C9.09959 69.5749 8.74376 69.8138 8.3334 69.9905C7.92823 70.1671 7.49449 70.2554 7.03218 70.2554H2.06885V68.0191H7.03218C7.18802 68.0191 7.33346 67.9906 7.46852 67.9334C7.60357 67.8763 7.72045 67.7984 7.81915 67.6997C7.92304 67.5958 8.00355 67.4763 8.06069 67.3413C8.11783 67.2062 8.1464 67.0608 8.1464 66.9049C8.1464 66.7491 8.11783 66.6036 8.06069 66.4686C8.00355 66.3335 7.92304 66.2167 7.81915 66.118C7.72045 66.0141 7.60357 65.9336 7.46852 65.8764C7.33346 65.8193 7.18802 65.7907 7.03218 65.7907H4.79596C4.33365 65.7907 3.89991 65.7024 3.49474 65.5258C3.08957 65.3492 2.73375 65.1102 2.42727 64.809C2.12599 64.5025 1.88705 64.1467 1.71043 63.7415C1.53382 63.3311 1.44552 62.8948 1.44552 62.4325ZM19.6937 66.0089C19.6937 66.6322 19.5821 67.214 19.3587 67.7542C19.1353 68.2893 18.8314 68.7542 18.4471 69.1489C18.0627 69.5385 17.6107 69.8476 17.0913 70.0762C16.577 70.2995 16.0238 70.4112 15.4317 70.4112C14.8447 70.4112 14.2915 70.2995 13.772 70.0762C13.2578 69.8476 12.8058 69.5385 12.4163 69.1489C12.0319 68.7542 11.728 68.2893 11.5046 67.7542C11.2813 67.214 11.1696 66.6322 11.1696 66.0089C11.1696 65.3752 11.2813 64.7882 11.5046 64.248C11.728 63.7077 12.0319 63.2428 12.4163 62.8532C12.8058 62.4585 13.2578 62.1494 13.772 61.926C14.2915 61.7027 14.8447 61.591 15.4317 61.591C16.0238 61.591 16.577 61.6975 17.0913 61.9104C17.6107 62.1182 18.0627 62.4169 18.4471 62.8065C18.8314 63.1909 19.1353 63.6558 19.3587 64.2012C19.5821 64.7414 19.6937 65.344 19.6937 66.0089ZM17.551 66.0089C17.551 65.666 17.4939 65.357 17.3796 65.0817C17.2705 64.8012 17.1199 64.5622 16.9277 64.3648C16.7355 64.1622 16.5095 64.009 16.2498 63.9051C15.9953 63.796 15.7226 63.7415 15.4317 63.7415C15.1408 63.7415 14.8655 63.796 14.6057 63.9051C14.3512 64.009 14.1278 64.1622 13.9356 64.3648C13.7486 64.5622 13.6006 64.8012 13.4915 65.0817C13.3824 65.357 13.3279 65.666 13.3279 66.0089C13.3279 66.3309 13.3824 66.6296 13.4915 66.9049C13.6006 67.1802 13.7486 67.4192 13.9356 67.6218C14.1278 67.8244 14.3512 67.9854 14.6057 68.1049C14.8655 68.2191 15.1408 68.2763 15.4317 68.2763C15.7226 68.2763 15.9953 68.2217 16.2498 68.1126C16.5095 68.0036 16.7355 67.8503 16.9277 67.6529C17.1199 67.4555 17.2705 67.2166 17.3796 66.9361C17.4939 66.6556 17.551 66.3465 17.551 66.0089ZM23.4805 70.2554H21.3534V64.0298H20.3171V61.9104H21.3534V61.5131C21.3534 60.9988 21.4495 60.5157 21.6417 60.0638C21.8391 59.6119 22.1066 59.2197 22.4442 58.8872C22.787 58.5496 23.1844 58.2847 23.6363 58.0925C24.0883 57.8951 24.5714 57.7964 25.0856 57.7964H26.6829V59.9158H25.0856C24.857 59.9158 24.6441 59.9573 24.4467 60.0404C24.2545 60.1183 24.0857 60.23 23.9402 60.3755C23.8 60.5157 23.6883 60.6845 23.6052 60.8819C23.5221 61.0741 23.4805 61.2845 23.4805 61.5131V61.9104H26.0907V64.0298H23.4805V70.2554ZM31.2878 70.2554C30.7736 70.2554 30.2905 70.1593 29.8386 69.9671C29.3866 69.7697 28.9893 69.5022 28.6464 69.1645C28.3088 68.8217 28.0413 68.4243 27.8439 67.9724C27.6517 67.5205 27.5556 67.0374 27.5556 66.5231V64.0454H26.5193V61.926H27.5556V58.5912H29.6749V61.926H32.9007V64.0454H29.6749V66.5231C29.6749 66.7465 29.7165 66.9569 29.7996 67.1543C29.8827 67.3465 29.997 67.5153 30.1424 67.6607C30.2879 67.8062 30.4593 67.923 30.6567 68.0114C30.8541 68.0945 31.0645 68.136 31.2878 68.136H32.9007V70.2554H31.2878ZM44.635 67.24C44.635 67.6763 44.5519 68.0893 44.3857 68.4789C44.2195 68.8632 43.9909 69.1983 43.7 69.484C43.4143 69.7697 43.0767 69.9956 42.6871 70.1619C42.3027 70.3281 41.8898 70.4112 41.4482 70.4112C41.0534 70.4112 40.6742 70.3437 40.3106 70.2086C39.947 70.0684 39.6172 69.8658 39.3211 69.6009C39.0302 69.8658 38.7029 70.0684 38.3393 70.2086C37.9809 70.3437 37.6017 70.4112 37.2017 70.4112C36.7602 70.4112 36.3472 70.3281 35.9629 70.1619C35.5785 69.9956 35.2408 69.7697 34.9499 69.484C34.6642 69.1983 34.4383 68.8632 34.272 68.4789C34.1058 68.0893 34.0227 67.6763 34.0227 67.24V61.926H36.1499V67.24C36.1499 67.3854 36.1758 67.5231 36.2278 67.6529C36.2849 67.7776 36.3602 67.8893 36.4537 67.988C36.5524 68.0815 36.6641 68.1568 36.7888 68.2139C36.9186 68.2659 37.0563 68.2919 37.2017 68.2919C37.3472 68.2919 37.4848 68.2659 37.6147 68.2139C37.7446 68.1568 37.8588 68.0815 37.9575 67.988C38.0562 67.8893 38.1315 67.7776 38.1835 67.6529C38.2406 67.5231 38.2692 67.3854 38.2692 67.24V61.926H40.3886V67.24C40.3886 67.3854 40.4171 67.5231 40.4743 67.6529C40.5314 67.7776 40.6067 67.8893 40.7002 67.988C40.7989 68.0815 40.9106 68.1568 41.0353 68.2139C41.1651 68.2659 41.3028 68.2919 41.4482 68.2919C41.5937 68.2919 41.7313 68.2659 41.8612 68.2139C41.991 68.1568 42.1027 68.0815 42.1962 67.988C42.2949 67.8893 42.3728 67.7776 42.43 67.6529C42.4871 67.5231 42.5157 67.3854 42.5157 67.24V61.926H44.635V67.24ZM54.2578 70.2554H53.7436L52.9176 69.11C52.7151 69.2918 52.4995 69.4632 52.2709 69.6242C52.0476 69.7801 51.8112 69.9177 51.5619 70.0372C51.3125 70.1515 51.0554 70.2424 50.7905 70.3099C50.5308 70.3774 50.2659 70.4112 49.9957 70.4112C49.4088 70.4112 48.8556 70.3125 48.3361 70.1151C47.8219 69.9177 47.3699 69.632 46.9803 69.258C46.596 68.8788 46.2921 68.4165 46.0687 67.8711C45.8454 67.3257 45.7337 66.7049 45.7337 66.0089C45.7337 65.3596 45.8454 64.7648 46.0687 64.2246C46.2921 63.6792 46.596 63.2117 46.9803 62.8221C47.3699 62.4325 47.8219 62.1312 48.3361 61.9182C48.8556 61.7001 49.4088 61.591 49.9957 61.591C50.2659 61.591 50.5334 61.6247 50.7983 61.6923C51.0632 61.7598 51.3203 61.8533 51.5697 61.9728C51.819 62.0922 52.0554 62.2325 52.2787 62.3935C52.5073 62.5546 52.7203 62.7286 52.9176 62.9156L53.7436 61.926H54.2578V70.2554ZM52.1151 66.0089C52.1151 65.718 52.058 65.4375 51.9437 65.1674C51.8346 64.8921 51.684 64.6505 51.4918 64.4427C51.2996 64.2298 51.0736 64.061 50.8139 63.9363C50.5593 63.8064 50.2866 63.7415 49.9957 63.7415C49.7049 63.7415 49.4295 63.7908 49.1698 63.8895C48.9153 63.9882 48.6919 64.1337 48.4997 64.3259C48.3127 64.5181 48.1647 64.757 48.0556 65.0427C47.9465 65.3232 47.892 65.6453 47.892 66.0089C47.892 66.3725 47.9465 66.6972 48.0556 66.9828C48.1647 67.2633 48.3127 67.4997 48.4997 67.6919C48.6919 67.8841 48.9153 68.0295 49.1698 68.1282C49.4295 68.2269 49.7049 68.2763 49.9957 68.2763C50.2866 68.2763 50.5593 68.2139 50.8139 68.0893C51.0736 67.9594 51.2996 67.7906 51.4918 67.5828C51.684 67.3698 51.8346 67.1283 51.9437 66.8582C52.058 66.5829 52.1151 66.2998 52.1151 66.0089ZM58.0134 70.2554H55.8863V61.9104H56.4005L57.1018 62.9C57.4446 62.5883 57.8342 62.3494 58.2706 62.1831C58.7069 62.0117 59.1588 61.926 59.6263 61.926H61.5041V64.0454H59.6263C59.403 64.0454 59.1926 64.0869 58.9952 64.17C58.7978 64.2531 58.6264 64.3674 58.4809 64.5129C58.3355 64.6583 58.2212 64.8297 58.1381 65.0271C58.055 65.2245 58.0134 65.4349 58.0134 65.6583V70.2554ZM65.6571 68.2139C65.7402 68.2399 65.8233 68.2581 65.9064 68.2685C65.9896 68.2737 66.0727 68.2763 66.1558 68.2763C66.3636 68.2763 66.5636 68.2477 66.7557 68.1906C66.9479 68.1334 67.1272 68.0529 67.2934 67.949C67.4648 67.8399 67.6154 67.7101 67.7453 67.5594C67.8804 67.4036 67.9894 67.2322 68.0725 67.0452L69.6309 68.6113C69.4335 68.8918 69.2049 69.1438 68.9452 69.3671C68.6907 69.5905 68.4128 69.7801 68.1115 69.9359C67.8154 70.0917 67.5012 70.2086 67.1687 70.2865C66.8415 70.3696 66.5038 70.4112 66.1558 70.4112C65.5688 70.4112 65.0156 70.3021 64.4961 70.084C63.9819 69.8658 63.53 69.5619 63.1404 69.1723C62.756 68.7827 62.4521 68.3204 62.2288 67.7854C62.0054 67.2452 61.8937 66.653 61.8937 66.0089C61.8937 65.3492 62.0054 64.7466 62.2288 64.2012C62.4521 63.6558 62.756 63.1909 63.1404 62.8065C63.53 62.4221 63.9819 62.1234 64.4961 61.9104C65.0156 61.6975 65.5688 61.591 66.1558 61.591C66.5038 61.591 66.8441 61.6325 67.1765 61.7156C67.5089 61.7988 67.8232 61.9182 68.1193 62.0741C68.4206 62.2299 68.7011 62.4221 68.9608 62.6506C69.2205 62.874 69.4491 63.1259 69.6465 63.4064L65.6571 68.2139ZM66.748 63.8272C66.6493 63.7908 66.5506 63.7675 66.4519 63.7571C66.3584 63.7467 66.2597 63.7415 66.1558 63.7415C65.8649 63.7415 65.5896 63.796 65.3299 63.9051C65.0753 64.009 64.852 64.1596 64.6598 64.357C64.4728 64.5544 64.3247 64.7934 64.2156 65.0739C64.1066 65.3492 64.052 65.6609 64.052 66.0089C64.052 66.0868 64.0546 66.1751 64.0598 66.2738C64.0702 66.3725 64.0832 66.4738 64.0988 66.5777C64.1195 66.6764 64.1429 66.7725 64.1689 66.866C64.1949 66.9595 64.2286 67.0426 64.2702 67.1153L66.748 63.8272ZM83.5469 66.0089C83.5469 66.6634 83.4352 67.2608 83.2119 67.801C82.9885 68.3412 82.6846 68.8061 82.3002 69.1957C81.9158 69.5801 81.4639 69.8788 80.9445 70.0917C80.4302 70.3047 79.877 70.4112 79.2848 70.4112C78.6979 70.4112 78.1446 70.3021 77.6252 70.084C77.1109 69.8658 76.659 69.5619 76.2694 69.1723C75.885 68.7827 75.5812 68.3204 75.3578 67.7854C75.1344 67.2452 75.0228 66.653 75.0228 66.0089V58.5912H77.1577V62.487C77.272 62.3416 77.4096 62.2117 77.5707 62.0974C77.7369 61.9832 77.9135 61.8897 78.1005 61.8169C78.2927 61.7442 78.4901 61.6897 78.6927 61.6533C78.8953 61.6118 79.0926 61.591 79.2848 61.591C79.877 61.591 80.4302 61.7027 80.9445 61.926C81.4639 62.1442 81.9158 62.4507 82.3002 62.8454C82.6846 63.2402 82.9885 63.7077 83.2119 64.248C83.4352 64.783 83.5469 65.37 83.5469 66.0089ZM81.4042 66.0089C81.4042 65.6868 81.347 65.3881 81.2328 65.1128C81.1237 64.8323 80.973 64.5908 80.7808 64.3882C80.5887 64.1856 80.3627 64.0272 80.103 63.9129C79.8484 63.7986 79.5757 63.7415 79.2848 63.7415C78.9939 63.7415 78.7186 63.8064 78.4589 63.9363C78.2044 64.061 77.981 64.2298 77.7888 64.4427C77.5966 64.6505 77.446 64.8921 77.3369 65.1674C77.2278 65.4375 77.1733 65.718 77.1733 66.0089C77.1733 66.3309 77.2278 66.6296 77.3369 66.9049C77.446 67.1802 77.5966 67.4192 77.7888 67.6218C77.981 67.8244 78.2044 67.9854 78.4589 68.1049C78.7186 68.2191 78.9939 68.2763 79.2848 68.2763C79.5757 68.2763 79.8484 68.2191 80.103 68.1049C80.3627 67.9854 80.5887 67.8244 80.7808 67.6218C80.973 67.4192 81.1237 67.1802 81.2328 66.9049C81.347 66.6296 81.4042 66.3309 81.4042 66.0089ZM86.7415 73.4344V71.2917L87.9259 71.3073C88.1336 71.3073 88.3336 71.2735 88.5258 71.206C88.718 71.1384 88.8946 71.0449 89.0557 70.9255C89.2219 70.806 89.3673 70.6631 89.492 70.4969C89.6167 70.3359 89.718 70.1593 89.7959 69.9671C89.5621 70.0658 89.3232 70.1645 89.079 70.2632C88.8401 70.3619 88.5985 70.4112 88.3544 70.4112C87.8402 70.4112 87.3571 70.3203 86.9051 70.1385C86.4532 69.9567 86.0558 69.6996 85.713 69.3671C85.3754 69.0295 85.1079 68.6217 84.9105 68.1438C84.7183 67.6607 84.6222 67.1205 84.6222 66.5231V61.9104H86.7415V66.5231C86.7415 66.8192 86.7831 67.0789 86.8662 67.3023C86.9545 67.5205 87.0714 67.7049 87.2168 67.8555C87.3623 68.001 87.5311 68.11 87.7233 68.1828C87.9207 68.2555 88.131 68.2919 88.3544 68.2919C88.5726 68.2919 88.7778 68.2425 88.97 68.1438C89.1673 68.0399 89.3388 67.9049 89.4842 67.7386C89.6297 67.5724 89.7439 67.3854 89.827 67.1776C89.9102 66.9647 89.9517 66.7465 89.9517 66.5231V61.9104H92.0944V69.2035C92.0892 69.7905 91.975 70.3411 91.7516 70.8553C91.5282 71.3696 91.2218 71.8189 90.8322 72.2033C90.4478 72.5877 89.9985 72.8916 89.4842 73.1149C88.97 73.3383 88.4193 73.45 87.8324 73.45L86.7415 73.4344ZM97.7668 62.4325C97.7668 61.9702 97.8551 61.5364 98.0317 61.1313C98.2083 60.7261 98.4473 60.3729 98.7486 60.0716C99.055 59.7651 99.4109 59.5236 99.816 59.347C100.221 59.1703 100.655 59.082 101.117 59.082H106.244V61.3183H101.117C100.961 61.3183 100.816 61.3468 100.681 61.404C100.546 61.4611 100.426 61.5416 100.322 61.6455C100.224 61.7442 100.146 61.8611 100.089 61.9961C100.032 62.1312 100.003 62.2766 100.003 62.4325C100.003 62.5883 100.032 62.7364 100.089 62.8766C100.146 63.0117 100.224 63.1311 100.322 63.235C100.426 63.3337 100.546 63.4116 100.681 63.4688C100.816 63.5259 100.961 63.5545 101.117 63.5545H103.353C103.816 63.5545 104.25 63.6428 104.655 63.8194C105.065 63.9908 105.421 64.2298 105.722 64.5362C106.029 64.8375 106.268 65.1933 106.439 65.6037C106.616 66.0089 106.704 66.4426 106.704 66.9049C106.704 67.3672 106.616 67.801 106.439 68.2061C106.268 68.6113 106.029 68.9671 105.722 69.2736C105.421 69.5749 105.065 69.8138 104.655 69.9905C104.25 70.1671 103.816 70.2554 103.353 70.2554H98.3901V68.0191H103.353C103.509 68.0191 103.655 67.9906 103.79 67.9334C103.925 67.8763 104.042 67.7984 104.14 67.6997C104.244 67.5958 104.325 67.4763 104.382 67.3413C104.439 67.2062 104.468 67.0608 104.468 66.9049C104.468 66.7491 104.439 66.6036 104.382 66.4686C104.325 66.3335 104.244 66.2167 104.14 66.118C104.042 66.0141 103.925 65.9336 103.79 65.8764C103.655 65.8193 103.509 65.7907 103.353 65.7907H101.117C100.655 65.7907 100.221 65.7024 99.816 65.5258C99.4109 65.3492 99.055 65.1102 98.7486 64.809C98.4473 64.5025 98.2083 64.1467 98.0317 63.7415C97.8551 63.3311 97.7668 62.8948 97.7668 62.4325ZM111.994 70.2554C111.48 70.2554 110.997 70.1593 110.545 69.9671C110.093 69.7697 109.696 69.5022 109.353 69.1645C109.015 68.8217 108.748 68.4243 108.551 67.9724C108.358 67.5205 108.262 67.0374 108.262 66.5231V64.0454H107.226V61.926H108.262V58.5912H110.382V61.926H113.607V64.0454H110.382V66.5231C110.382 66.7465 110.423 66.9569 110.506 67.1543C110.589 67.3465 110.704 67.5153 110.849 67.6607C110.995 67.8062 111.166 67.923 111.363 68.0114C111.561 68.0945 111.771 68.136 111.994 68.136H113.607V70.2554H111.994ZM120.939 69.2814C120.768 69.4372 120.584 69.5853 120.386 69.7255C120.194 69.8606 119.991 69.9801 119.778 70.084C119.565 70.1826 119.345 70.2606 119.116 70.3177C118.893 70.38 118.664 70.4112 118.43 70.4112C117.916 70.4112 117.433 70.3203 116.981 70.1385C116.529 69.9567 116.132 69.6996 115.789 69.3671C115.451 69.0295 115.184 68.6217 114.987 68.1438C114.794 67.6607 114.698 67.1205 114.698 66.5231V61.9104H116.818V66.5231C116.818 66.8036 116.859 67.0556 116.942 67.2789C117.031 67.4971 117.147 67.6815 117.293 67.8321C117.438 67.9828 117.607 68.0971 117.799 68.175C117.997 68.2529 118.207 68.2919 118.43 68.2919C118.649 68.2919 118.854 68.2425 119.046 68.1438C119.243 68.0399 119.415 67.9049 119.56 67.7386C119.706 67.5724 119.82 67.3854 119.903 67.1776C119.986 66.9647 120.028 66.7465 120.028 66.5231V61.9104H122.155V70.2554H121.641L120.939 69.2814ZM131.848 70.2554H131.334L130.508 69.11C130.305 69.2918 130.089 69.4632 129.861 69.6242C129.638 69.7801 129.401 69.9177 129.152 70.0372C128.903 70.1515 128.645 70.2424 128.38 70.3099C128.121 70.3774 127.856 70.4112 127.586 70.4112C126.999 70.4112 126.446 70.3021 125.926 70.084C125.412 69.8606 124.96 69.5541 124.57 69.1645C124.186 68.7697 123.882 68.3048 123.659 67.7698C123.435 67.2296 123.324 66.6426 123.324 66.0089C123.324 65.3803 123.435 64.796 123.659 64.2557C123.882 63.7155 124.186 63.248 124.57 62.8532C124.96 62.4585 125.412 62.1494 125.926 61.926C126.446 61.7027 126.999 61.591 127.586 61.591C127.773 61.591 127.965 61.6066 128.162 61.6377C128.365 61.6689 128.56 61.7208 128.747 61.7936C128.939 61.8611 129.118 61.952 129.284 62.0663C129.451 62.1805 129.591 62.3208 129.705 62.487V58.5912H131.848V70.2554ZM129.705 66.0089C129.705 65.718 129.648 65.4375 129.534 65.1674C129.425 64.8921 129.274 64.6505 129.082 64.4427C128.89 64.2298 128.664 64.061 128.404 63.9363C128.149 63.8064 127.877 63.7415 127.586 63.7415C127.295 63.7415 127.02 63.7934 126.76 63.8973C126.505 64.0012 126.282 64.1519 126.09 64.3492C125.903 64.5414 125.755 64.7778 125.646 65.0583C125.537 65.3388 125.482 65.6557 125.482 66.0089C125.482 66.3154 125.537 66.6062 125.646 66.8816C125.755 67.1569 125.903 67.3984 126.09 67.6062C126.282 67.814 126.505 67.9776 126.76 68.0971C127.02 68.2165 127.295 68.2763 127.586 68.2763C127.877 68.2763 128.149 68.2139 128.404 68.0893C128.664 67.9594 128.89 67.7906 129.082 67.5828C129.274 67.3698 129.425 67.1283 129.534 66.8582C129.648 66.5829 129.705 66.2998 129.705 66.0089ZM136.796 68.2139C136.879 68.2399 136.962 68.2581 137.045 68.2685C137.128 68.2737 137.211 68.2763 137.294 68.2763C137.502 68.2763 137.702 68.2477 137.894 68.1906C138.086 68.1334 138.266 68.0529 138.432 67.949C138.603 67.8399 138.754 67.7101 138.884 67.5594C139.019 67.4036 139.128 67.2322 139.211 67.0452L140.769 68.6113C140.572 68.8918 140.343 69.1438 140.084 69.3671C139.829 69.5905 139.551 69.7801 139.25 69.9359C138.954 70.0917 138.64 70.2086 138.307 70.2865C137.98 70.3696 137.642 70.4112 137.294 70.4112C136.707 70.4112 136.154 70.3021 135.635 70.084C135.12 69.8658 134.668 69.5619 134.279 69.1723C133.894 68.7827 133.591 68.3204 133.367 67.7854C133.144 67.2452 133.032 66.653 133.032 66.0089C133.032 65.3492 133.144 64.7466 133.367 64.2012C133.591 63.6558 133.894 63.1909 134.279 62.8065C134.668 62.4221 135.12 62.1234 135.635 61.9104C136.154 61.6975 136.707 61.591 137.294 61.591C137.642 61.591 137.982 61.6325 138.315 61.7156C138.647 61.7988 138.962 61.9182 139.258 62.0741C139.559 62.2299 139.84 62.4221 140.099 62.6506C140.359 62.874 140.588 63.1259 140.785 63.4064L136.796 68.2139ZM137.886 63.8272C137.788 63.7908 137.689 63.7675 137.59 63.7571C137.497 63.7467 137.398 63.7415 137.294 63.7415C137.003 63.7415 136.728 63.796 136.468 63.9051C136.214 64.009 135.99 64.1596 135.798 64.357C135.611 64.5544 135.463 64.7934 135.354 65.0739C135.245 65.3492 135.19 65.6609 135.19 66.0089C135.19 66.0868 135.193 66.1751 135.198 66.2738C135.209 66.3725 135.222 66.4738 135.237 66.5777C135.258 66.6764 135.281 66.7725 135.307 66.866C135.333 66.9595 135.367 67.0426 135.409 67.1153L137.886 63.8272ZM143.987 70.2554H141.86V61.9104H142.374L143.076 62.7208C143.419 62.4091 143.806 62.1702 144.237 62.0039C144.673 61.8325 145.128 61.7468 145.6 61.7468C146.109 61.7468 146.59 61.8455 147.042 62.0429C147.494 62.2351 147.888 62.5026 148.226 62.8454C148.564 63.1831 148.829 63.5805 149.021 64.0376C149.218 64.4895 149.317 64.9726 149.317 65.4868V70.2554H147.19V65.4868C147.19 65.2687 147.148 65.0635 147.065 64.8713C146.982 64.6739 146.868 64.5025 146.722 64.357C146.577 64.2116 146.408 64.0973 146.216 64.0142C146.024 63.9311 145.818 63.8895 145.6 63.8895C145.377 63.8895 145.166 63.9311 144.969 64.0142C144.772 64.0973 144.6 64.2116 144.455 64.357C144.309 64.5025 144.195 64.6739 144.112 64.8713C144.029 65.0635 143.987 65.2687 143.987 65.4868V70.2554ZM154.911 70.2554C154.397 70.2554 153.914 70.1593 153.462 69.9671C153.01 69.7697 152.613 69.5022 152.27 69.1645C151.932 68.8217 151.665 68.4243 151.467 67.9724C151.275 67.5205 151.179 67.0374 151.179 66.5231V64.0454H150.143V61.926H151.179V58.5912H153.298V61.926H156.524V64.0454H153.298V66.5231C153.298 66.7465 153.34 66.9569 153.423 67.1543C153.506 67.3465 153.62 67.5153 153.766 67.6607C153.911 67.8062 154.083 67.923 154.28 68.0114C154.478 68.0945 154.688 68.136 154.911 68.136H156.524V70.2554H154.911ZM162.306 70.2554H157.444V68.136H162.306C162.451 68.136 162.576 68.0841 162.68 67.9802C162.784 67.8763 162.835 67.7516 162.835 67.6062C162.835 67.4555 162.784 67.3568 162.68 67.3101C162.576 67.2633 162.451 67.24 162.306 67.24H160.093C159.724 67.24 159.379 67.1698 159.057 67.0296C158.734 66.8893 158.454 66.6997 158.215 66.4608C157.976 66.2167 157.786 65.9336 157.646 65.6115C157.511 65.2894 157.444 64.944 157.444 64.5752C157.444 64.2064 157.511 63.861 157.646 63.5389C157.786 63.2168 157.976 62.9363 158.215 62.6974C158.454 62.4585 158.734 62.2715 159.057 62.1364C159.379 61.9961 159.724 61.926 160.093 61.926H164.402V64.0454H160.093C159.947 64.0454 159.823 64.0973 159.719 64.2012C159.615 64.3051 159.563 64.4298 159.563 64.5752C159.563 64.7258 159.615 64.8557 159.719 64.9648C159.823 65.0687 159.947 65.1206 160.093 65.1206H162.306C162.669 65.1206 163.012 65.183 163.334 65.3076C163.656 65.4271 163.937 65.5959 164.176 65.8141C164.415 66.0323 164.604 66.2946 164.744 66.6011C164.885 66.9075 164.955 67.2426 164.955 67.6062C164.955 67.975 164.885 68.3204 164.744 68.6425C164.604 68.9593 164.415 69.2398 164.176 69.484C163.937 69.7229 163.656 69.9125 163.334 70.0528C163.012 70.1878 162.669 70.2554 162.306 70.2554Z" fill="black"/>
</svg>
